#!OML:ASF X:\für Bonn\!DataBase\2005_08_11_Bastian_Final\c3d\Bastian.ASF
:FULLY-SPECIFIED
:DEGREES
79
root 3.7599 16.8162 -4.90842 717.278 -0.491264 -4.03466
lowerback 16.5028 -2.15277 3.66268
upperback 3.44429 -2.15583 0.810541
thorax -5.66371 -1.10538 -0.759092
lowerneck -13.5613 -3.48452 0.346301
upperneck -3.09325 -4.80419 6.55277
head 1.49958 -2.24097 1.77662
rclavicle 1.54555e-014 -8.54774e-015
rhumerus -48.838 -1.60199 -85.5664
rradius 46.6628
rwrist 2.57724
rhand -19.2755 20.763
rfingers 7.12502
rthumb 7.03918 -9.09994
lclavicle 1.54555e-014 -8.54774e-015
lhumerus -41.454 13.0854 73.5696
lradius 52.6294
lwrist 189.807
lhand -21.0633 12.3841
lfingers 7.12502
lthumb 5.31322 42.2975
rfemur -34.0672 -0.178046 20.5647
rtibia 55.754
rfoot -29.0007 -4.00462
rtoes -18.0388
lfemur -25.0352 0.167045 -15.7616
ltibia 53.0223
lfoot -10.8859 -13.3168
ltoes -8.15198
80
root 3.75465 16.4902 -4.74497 716.938 -0.821093 -4.03094
lowerback 17.4621 -2.07705 3.74538
upperback 3.54801 -1.99135 0.888225
thorax -6.06314 -1.02843 -0.731931
lowerneck -13.442 -3.44781 0.324416
upperneck -4.3006 -4.67953 6.38135
head 1.07129 -2.21682 1.73807
rclavicle 2.27111e-014 -1.83876e-014
rhumerus -47.7617 -1.99476 -85.2535
rradius 43.8572
rwrist 2.13293
rhand -19.6126 20.1907
rfingers 7.12502
rthumb 6.71383 -9.68281
lclavicle 2.27111e-014 -1.83876e-014
lhumerus -40.9112 13.577 73.4869
lradius 49.1649
lwrist 188.659
lhand -20.3933 13.1718
lfingers 7.12502
lthumb 5.96015 43.068
rfemur -34.9638 -0.26083 20.6118
rtibia 57.8043
rfoot -27.7934 -3.18908
rtoes -18.6985
lfemur -25.4645 0.0656763 -15.8398
ltibia 56.4487
lfoot -15.604 -14.0227
ltoes -4.91259
81
root 3.75069 16.2012 -4.58698 716.689 -1.15598 -4.08465
lowerback 18.4083 -2.00034 3.90699
upperback 3.5993 -1.80757 0.964745
thorax -6.51118 -0.945198 -0.75807
lowerneck -13.3205 -3.41305 0.315311
upperneck -5.52931 -4.56351 6.2281
head 0.64165 -2.19534 1.70472
rclavicle 4.47266e-015 4.07509e-015
rhumerus -46.7518 -2.29699 -85.0816
rradius 41.2191
rwrist 1.23289
rhand -19.5524 19.4269
rfingers 7.12502
rthumb 6.77196 -10.4448
lclavicle 4.47266e-015 4.07509e-015
lhumerus -40.3758 14.0336 73.43
lradius 45.8522
lwrist 187.691
lhand -19.7581 13.7975
lfingers 7.12502
lthumb 6.57335 43.6755
rfemur -35.9934 -0.371152 20.7238
rtibia 59.9875
rfoot -26.5048 -2.10541
rtoes -18.1406
lfemur -26.0886 -0.0602324 -15.8438
ltibia 59.8948
lfoot -19.6549 -14.5349
ltoes -1.84409
82
root 3.74403 15.939 -4.4304 716.549 -1.395 -3.68413
lowerback 19.1836 -1.86756 3.60874
upperback 3.6824 -1.65832 0.918917
thorax -6.82399 -0.869517 -0.655738
lowerneck -13.3252 -3.40207 0.23299
upperneck -6.75894 -4.47545 6.1828
head 0.24353 -2.18105 1.71815
rclavicle 1.00014e-014 -2.29596e-014
rhumerus -45.5747 -2.53757 -84.9994
rradius 38.5728
rwrist 0.198334
rhand -19.5673 18.6312
rfingers 7.12502
rthumb 6.75752 -11.2409
lclavicle 1.00014e-014 -2.29596e-014
lhumerus -39.5831 14.4371 73.5268
lradius 42.6987
lwrist 186.515
lhand -19.1807 14.6135
lfingers 7.12502
lthumb 7.13074 44.4734
rfemur -37.1822 -0.553889 20.3175
rtibia 62.3349
rfoot -24.8604 -0.893611
rtoes -17.4411
lfemur -26.7851 -0.222509 -16.3519
ltibia 63.2563
lfoot -22.9951 -14.9101
ltoes 2.69
